REM DIRINDEX 1\2,1\3,1\4
REM DIRNAME folder01,folder02,folder03,folder04
TITLE ""
FILE "145 145_TOEFL_3900.mp3" MP3
  TRACK 01 AUDIO
    TITLE "2:cjc151_6309"
    INDEX 01 00:00:00
  TRACK 02 AUDIO
    TITLE "0:"
    INDEX 01 00:01:15
  TRACK 03 AUDIO
    TITLE "3:cjc151_6310"
    INDEX 01 00:02:71
  TRACK 04 AUDIO
    TITLE "0:"
    INDEX 01 00:06:53
  TRACK 05 AUDIO
    TITLE "2:cjc151_6311"
    INDEX 01 00:08:30
  TRACK 06 AUDIO
    TITLE "0:"
    INDEX 01 00:09:44
  TRACK 07 AUDIO
    TITLE "3:cjc151_6312"
    INDEX 01 00:11:23
  TRACK 08 AUDIO
    TITLE "0:"
    INDEX 01 00:14:72
  TRACK 09 AUDIO
    TITLE "2:cjc151_6313"
    INDEX 01 00:16:49
  TRACK 10 AUDIO
    TITLE "0:"
    INDEX 01 00:17:69
  TRACK 11 AUDIO
    TITLE "3:cjc151_6314"
    INDEX 01 00:19:48
  TRACK 12 AUDIO
    TITLE "0:"
    INDEX 01 00:22:74
  TRACK 13 AUDIO
    TITLE "2:cjc151_6315"
    INDEX 01 00:24:53
  TRACK 14 AUDIO
    TITLE "0:"
    INDEX 01 00:26:01
  TRACK 15 AUDIO
    TITLE "3:cjc151_6316"
    INDEX 01 00:27:55
  TRACK 16 AUDIO
    TITLE "0:"
    INDEX 01 00:32:54
  TRACK 17 AUDIO
    TITLE "2:cjc151_6317"
    INDEX 01 00:34:34
  TRACK 18 AUDIO
    TITLE "0:"
    INDEX 01 00:35:41
  TRACK 19 AUDIO
    TITLE "3:cjc151_6318"
    INDEX 01 00:37:18
  TRACK 20 AUDIO
    TITLE "0:"
    INDEX 01 00:40:32
  TRACK 21 AUDIO
    TITLE "2:cjc151_6319"
    INDEX 01 00:42:12
  TRACK 22 AUDIO
    TITLE "0:"
    INDEX 01 00:43:25
  TRACK 23 AUDIO
    TITLE "3:cjc151_6320"
    INDEX 01 00:45:02
  TRACK 24 AUDIO
    TITLE "0:"
    INDEX 01 00:50:37
  TRACK 25 AUDIO
    TITLE "2:cjc151_6321"
    INDEX 01 00:52:18
  TRACK 26 AUDIO
    TITLE "0:"
    INDEX 01 00:53:33
  TRACK 27 AUDIO
    TITLE "3:cjc151_6322"
    INDEX 01 00:55:12
  TRACK 28 AUDIO
    TITLE "0:"
    INDEX 01 01:00:02
  TRACK 29 AUDIO
    TITLE "2:cjc151_6323"
    INDEX 01 01:01:54
  TRACK 30 AUDIO
    TITLE "0:"
    INDEX 01 01:02:61
  TRACK 31 AUDIO
    TITLE "3:cjc151_6324"
    INDEX 01 01:04:39
  TRACK 32 AUDIO
    TITLE "0:"
    INDEX 01 01:07:74
  TRACK 33 AUDIO
    TITLE "2:cjc151_6325"
    INDEX 01 01:09:52
  TRACK 34 AUDIO
    TITLE "0:"
    INDEX 01 01:10:51
  TRACK 35 AUDIO
    TITLE "3:cjc151_6326"
    INDEX 01 01:12:28
  TRACK 36 AUDIO
    TITLE "0:"
    INDEX 01 01:16:67
  TRACK 37 AUDIO
    TITLE "2:cjc151_6327"
    INDEX 01 01:18:47
  TRACK 38 AUDIO
    TITLE "0:"
    INDEX 01 01:19:54
  TRACK 39 AUDIO
    TITLE "3:cjc151_6328"
    INDEX 01 01:21:33
  TRACK 40 AUDIO
    TITLE "0:"
    INDEX 01 01:26:42
  TRACK 41 AUDIO
    TITLE "2:cjc151_6329"
    INDEX 01 01:28:22
  TRACK 42 AUDIO
    TITLE "0:"
    INDEX 01 01:29:31
  TRACK 43 AUDIO
    TITLE "3:cjc151_6330"
    INDEX 01 01:31:08
  TRACK 44 AUDIO
    TITLE "0:"
    INDEX 01 01:35:43
  TRACK 45 AUDIO
    TITLE "2:cjc151_6331"
    INDEX 01 01:37:22
  TRACK 46 AUDIO
    TITLE "0:"
    INDEX 01 01:38:30
  TRACK 47 AUDIO
    TITLE "3:cjc151_6332"
    INDEX 01 01:40:09
  TRACK 48 AUDIO
    TITLE "0:"
    INDEX 01 01:44:58
  TRACK 49 AUDIO
    TITLE "2:cjc151_6333"
    INDEX 01 01:46:39
  TRACK 50 AUDIO
    TITLE "0:"
    INDEX 01 01:47:48
  TRACK 51 AUDIO
    TITLE "3:cjc151_6334"
    INDEX 01 01:49:26
  TRACK 52 AUDIO
    TITLE "0:"
    INDEX 01 01:54:05
  TRACK 53 AUDIO
    TITLE "2:cjc151_6335"
    INDEX 01 01:55:60
  TRACK 54 AUDIO
    TITLE "0:"
    INDEX 01 01:56:71
  TRACK 55 AUDIO
    TITLE "3:cjc151_6336"
    INDEX 01 01:58:48
  TRACK 56 AUDIO
    TITLE "0:"
    INDEX 01 02:02:34
  TRACK 57 AUDIO
    TITLE "2:cjc151_6337"
    INDEX 01 02:04:13
  TRACK 58 AUDIO
    TITLE "0:"
    INDEX 01 02:05:19
  TRACK 59 AUDIO
    TITLE "3:cjc151_6338"
    INDEX 01 02:06:73
  TRACK 60 AUDIO
    TITLE "0:"
    INDEX 01 02:10:65
  TRACK 61 AUDIO
    TITLE "2:cjc151_6339"
    INDEX 01 02:12:44
  TRACK 62 AUDIO
    TITLE "0:"
    INDEX 01 02:13:61
  TRACK 63 AUDIO
    TITLE "3:cjc151_6340"
    INDEX 01 02:15:41
  TRACK 64 AUDIO
    TITLE "0:"
    INDEX 01 02:20:22
  TRACK 65 AUDIO
    TITLE "2:cjc151_6341"
    INDEX 01 02:22:02
  TRACK 66 AUDIO
    TITLE "0:"
    INDEX 01 02:23:17
  TRACK 67 AUDIO
    TITLE "3:cjc151_6342"
    INDEX 01 02:24:69
  TRACK 68 AUDIO
    TITLE "0:"
    INDEX 01 02:29:37
  TRACK 69 AUDIO
    TITLE "2:cjc151_6343"
    INDEX 01 02:31:16
  TRACK 70 AUDIO
    TITLE "0:"
    INDEX 01 02:32:18
  TRACK 71 AUDIO
    TITLE "3:cjc151_6344"
    INDEX 01 02:33:70
  TRACK 72 AUDIO
    TITLE "0:"
    INDEX 01 02:37:64
  TRACK 73 AUDIO
    TITLE "2:cjc151_6345"
    INDEX 01 02:39:43
  TRACK 74 AUDIO
    TITLE "0:"
    INDEX 01 02:40:54
  TRACK 75 AUDIO
    TITLE "3:cjc151_6346"
    INDEX 01 02:42:34
  TRACK 76 AUDIO
    TITLE "0:"
    INDEX 01 02:46:12
  TRACK 77 AUDIO
    TITLE "2:cjc151_6347"
    INDEX 01 02:47:66
  TRACK 78 AUDIO
    TITLE "0:"
    INDEX 01 02:49:16
  TRACK 79 AUDIO
    TITLE "3:cjc151_6348"
    INDEX 01 02:50:70
  TRACK 80 AUDIO
    TITLE "0:"
    INDEX 01 02:55:28
  TRACK 81 AUDIO
    TITLE "2:cjc151_6349"
    INDEX 01 02:57:06
  TRACK 82 AUDIO
    TITLE "0:"
    INDEX 01 02:58:07
  TRACK 83 AUDIO
    TITLE "3:cjc151_6350"
    INDEX 01 02:59:63
  TRACK 84 AUDIO
    TITLE "0:"
    INDEX 01 03:03:22
  TRACK 85 AUDIO
    TITLE "2:cjc151_6351"
    INDEX 01 03:04:72
  TRACK 86 AUDIO
    TITLE "0:"
    INDEX 01 03:06:18
  TRACK 87 AUDIO
    TITLE "3:cjc151_6352"
    INDEX 01 03:07:73
  TRACK 88 AUDIO
    TITLE "0:"
    INDEX 01 03:13:15
